<?xml version="1.0" encoding="UTF-8"?> <svg xmlns="http://www.w3.org/2000/svg" xmlns:xlink="http://www.w3.org/1999/xlink" fill="none" height="37" viewBox="0 0 200 37" width="200"><clipPath id="a"><path d="m0 0h200v37h-200z"></path></clipPath><g clip-path="url(#a)" fill="#000"><path d="m23.6018 8.08374v4.63046c-.0608 5.4959-1.8149 8.101-7.1987 8.101h-15.691186v-4.5352h14.918386c1.9364 0 2.6051-1.3588 2.6051-3.5485h-11.41025v-4.56986h11.41025v-.37217c0-2.69169-.8163-3.24561-2.6051-3.24561h-14.918386v-4.54386h14.979186c5.4793 0 7.9107 2.1724 7.9107 8.08374zm15.0313 4.76026h-5.7746v7.9972h-5.2102v-20.8412h5.2102v8.02316h5.4793l5.1668-8.02316h6.339l-6.9469 10.2042 7.4852 10.6024h-6.4605zm35.8371-12.844v7.4952h-5.2102v-2.94268h-9.5519c-1.9364 0-2.6051 1.36748-2.6051 3.55719v4.92469c0 2.6917.8076 3.2456 2.6051 3.2456h9.5519v-2.9427h5.2102v7.4952h-14.875c-5.4706 0-7.9107-2.1637-7.9107-8.0837v-4.32751c0-5.69497 1.7367-8.3866701 7.2073-8.3866701zm26.9798 0v20.8325h-5.2101v-16.27998h-12.3567v16.27998h-5.2102v-20.8325zm52.544 0v20.8325h-5.21v-8.127h-12.331v8.127h-5.21v-20.8325h5.21v8.15298h12.331v-8.15298zm25.669 4.58713h-8.779v16.25407h-5.21v-16.25407h-8.814v-4.58713h22.803zm-70.624 16.27137h-3.56v-3.9207l16.751-16.825285h3.682v3.851465l-4.889 4.89871h4.889v11.99581h-4.915v-11.99581zm72.83 0h-3.561v-3.9207l16.751-16.825285h3.673v3.851465l-4.88 4.89871h4.897v11.99581h-4.906v-11.99581z"></path><path d="m1.88421 34.7151c-.3509.0072-.6987-.0668-1.015977-.2164-.259587-.1379-.475939-.3446-.625217-.5972-.1496418-.2428-.2334258-.5201-.24313983-.8049-.0075529-.2682.05530643-.5337.18235483-.7703.122537-.2089.291953-.3866.494964-.5193.224754-.1363.467275-.2412.720735-.3116.27788-.0605.59048-.1211.92914-.1731.33866-.0519.66864-.1038.98993-.1384l.86836-.1126-.26051.1558c.04085-.4251-.06982-.8511-.31261-1.203-.15293-.1441-.33532-.2535-.53468-.3208-.19935-.0672-.41094-.0906-.62023-.0687-.33693-.0076-.66882.0826-.9552.2597-.27574.188-.4709.472-.547061.7962l-.72942-.2077c.107104-.4607.378718-.8667.764154-1.1425.434727-.2917.952887-.4344 1.476207-.4067.44445-.0115.88518.0835 1.28517.2769.3368.1757.60107.4636.74679.8136.06768.1721.1115.3527.13025.5366v.5972 3.41h-.65127v-1.3761l.19104.0779c-.16201.4438-.46749.8214-.86836 1.0732-.42484.2601-.91716.3895-1.41542.3722zm.07815-.6405c.31757.0095.6329-.0558.92046-.1904.25024-.1156.46798-.291.6339-.5106.1566-.2229.26322-.4768.31261-.7444.04148-.1992.06185-.4023.06079-.6058 0-.2077 0-.3722 0-.476l.28655.1471-.86835.1039c-.29524 0-.59049.0692-.86836.1211-.26016.0385-.51812.0905-.77284.1558-.15671.044-.30813.105-.45154.1818-.14618.0752-.271461.1852-.364714.3202-.095209.1467-.143645.3187-.138937.4933.002134.1606.043886.3181.12157.4588.09159.1589.227271.2881.390761.3721.22643.1216.48106.1813.7381.1731z"></path><path d="m5.45337 34.5679v-.6577c.1527.0473.31621.0473.46891 0 .10861-.0657.19136-.1665.23446-.2856.06011-.1626.10375-.3308.13025-.502.0521-.3289.1042-.6924.14762-1.0906.04342-.3981.07815-.8655.12157-1.3242s.06947-1.0126.10421-1.6011h3.76001v5.4872h-.74682v-4.7948h-2.31851l-.07815 1.0732c0 .3548-.06947.6924-.09552 1.0213-.02605.3288-.06947.6231-.1042.8655-.03474.2423-.07816.5106-.12157.7097-.04082.2511-.12297.4938-.24314.7183-.04363.0876-.10583.1647-.18229.226-.07647.0612-.16538.1052-.26058.1289-.26614.0732-.54596.0821-.81625.0259z"></path><path d="m11.8269 34.5679v-5.4872h3.8034v.7184h-3.0566v4.7688z"></path><path d="m18.7565 34.7151c-.4898.0148-.9731-.1147-1.3894-.3722-.3812-.251-.6825-.6053-.8684-1.0213-.2115-.4771-.3207-.993-.3207-1.5146s.1092-1.0375.3207-1.5146c.1889-.4118.4897-.7626.8684-1.0126.4273-.2381.9086-.363 1.3981-.363.4894 0 .9707.1249 1.398.363.3793.2531.6801.6068.8684 1.0212.2064.4754.313.988.313 1.506s-.1066 1.0306-.313 1.506c-.1816.4186-.4838.7741-.8684 1.0213-.423.2577-.911.3899-1.4067.3808zm0-.7097c.2596.018.5197-.0278.7574-.1335.2378-.1056.4458-.2678.6059-.4724.3189-.4651.4774-1.021.4515-1.5838.0298-.5633-.129-1.1204-.4515-1.5839-.1629-.2002-.3719-.3583-.6093-.4608-.2374-.1024-.496-.1463-.754-.1277-.3593-.0148-.7143.082-1.016.2769-.2696.1922-.4753.4605-.5905.7703-.1417.3579-.2096.7406-.1997 1.1252-.0253.5667.1364 1.126.4602 1.5925.1593.2004.365.3594.5994.4634s.4905.1499.7466.1338z"></path><path d="m22.4817 37v-7.9193h.6686v4.1284h.0869v3.7909zm2.4748-2.2849c-.4588.0176-.9106-.1163-1.2852-.3808-.3572-.2642-.6314-.6245-.7902-1.0386-.1983-.4685-.3016-.9715-.3039-1.48-.0103-.5063.0812-1.0096.2692-1.48.1655-.4104.4421-.767.7989-1.03.384-.2577.8398-.388 1.3025-.3721.4613-.0157.9152.1179 1.2939.3808.3824.2533.6839.6108.8683 1.0299.1963.4655.2939.9665.2866 1.4714.012.5089-.0889 1.0143-.2953 1.48-.1817.4231-.4835.7841-.8683 1.0386-.3754.2561-.8216.3892-1.2765.3808zm-.0781-.6924c.3413.0126.6772-.0878.9551-.2856.2641-.2049.4631-.4814.5732-.7963.1344-.3596.1992-.7414.191-1.1251.0045-.3799-.0572-.7577-.1824-1.1165-.1168-.309-.3147-.581-.5731-.7876-.2894-.1832-.6253-.2805-.9682-.2805s-.6787.0973-.9682.2805c-.2581.2013-.4538.4714-.5644.7789-.2554.7345-.2554 1.5332 0 2.2676.1059.3147.3059.5895.5731.7876.2817.196.6207.2934.9639.277z"></path><path d="m32.8847 29.0807v5.4872h-.7554v-4.2755l-3.0132 4.2755h-.6339v-5.4872h.7294v4.2323l3.0219-4.2323z"></path><path d="m35.8024 34.5679v-4.7948h-1.9364v-.6924h4.6457v.6924h-1.9625v4.7948z"></path><path d="m39.4668 34.5679v-5.4872h.6686l2.1449 4.4919 2.1448-4.4919h.66v5.4872h-.7208v-3.8947l-1.8148 3.8947h-.4689l-1.8496-3.8947v3.8947z"></path><path d="m46.5178 34.5679v-5.4872h.7555v2.0772h1.4241.4168c.2553.0475.4996.1414.7207.2769.2326.1379.4174.3432.5297.5886.1328.2686.1955.5663.1824.8655.0212.4043-.1087.8021-.3647 1.1165-.244.2674-.5659.452-.9205.5279-.1492.0273-.3.0447-.4515.052h-.4776zm.7468-.6404h1.3633c.1294-.0047.2577-.0251.3821-.0606.1899-.0535.3612-.1583.495-.3029.1601-.1972.2378-.4483.2171-.7011.0173-.251-.0567-.4999-.2084-.701-.1548-.1596-.3548-.2683-.5732-.3116h-.3473-1.3286zm3.8989.6404v-5.4872h.7468v5.4872z"></path><path d="m53.2389 35.6239v-.3635c.0525.0098.1067.0071.158-.008.0513-.015.0984-.0419.1372-.0786.0647-.0722.1043-.1632.1129-.2596.0133-.1151.0133-.2312 0-.3462h-.4602v-1.0732h.8683v1.2722c.0145.1282.0028.2579-.0345.3814s-.0994.2382-.1826.337c-.0814.0692-.1784.1179-.2826.142-.1043.0241-.2128.0229-.3165-.0035z"></path><path d="m58.0757 34.5679v-5.4872h4.3418v5.4872h-.7468v-4.7688h-2.8482v4.7688z"></path><path d="m66.1774 34.7151c-.4953.0156-.9844-.1138-1.4067-.3722-.3822-.2499-.6838-.6045-.8684-1.0213-.206-.4755-.3122-.988-.3122-1.5059 0-.518.1062-1.0305.3122-1.506.1869-.413.4881-.7644.8684-1.0126.4186-.2512.9009-.3774 1.3893-.3635.4941-.0143.982.1117 1.4068.3635.3822.2498.6837.6045.8683 1.0213.2065.4754.313.9879.313 1.5059s-.1065 1.0306-.313 1.506c-.1833.4175-.4851.7725-.8683 1.0213-.4198.2485-.9012.3745-1.3894.3635zm0-.7097c.2595.0165.5191-.03.7566-.1355.2374-.1056.4456-.267.6067-.4704.3159-.4662.4713-1.022.4429-1.5838.0298-.5633-.1291-1.1204-.4516-1.5839-.161-.2001-.3685-.3582-.6045-.4608-.2359-.1025-.4934-.1463-.7501-.1277-.3593-.0148-.7142.082-1.016.2769-.2725.1913-.4812.4596-.5991.7703-.1374.3591-.2052.7409-.1998 1.1252-.0252.5667.1364 1.126.4603 1.5925.1606.2011.3678.3605.6037.4645s.4935.1495.7509.1327z"></path><path d="m69.894 34.5679v-5.4872h2.2665.4254c.1553.0091.3093.0322.4603.0692.2979.0801.5607.2567.7468.502.1798.2531.2768.5554.2778.8655.0045.1799-.0249.359-.0868.528-.0578.1474-.1433.2825-.2518.3981-.0496.058-.1082.1077-.1737.1471-.0539.0409-.1121.0757-.1737.1039.1666.0437.3229.1197.46.2237.137.104.2522.2338.3389.3821.1168.2596.1676.5439.1479.8277s-.1092.5584-.2608.7995c-.1806.2414-.4376.4151-.7294.4933-.142.0377-.2874.0609-.4342.0692h-.4515zm.7555-3.0638h1.537.2952c.1004-.0093.1994-.0296.2953-.0606.0819-.0253.1579-.0666.2235-.1216s.1195-.1226.1586-.1986c.0865-.1469.1315-.3144.1302-.4847.0045-.1801-.0438-.3575-.1389-.5107-.0946-.1434-.2356-.2502-.3995-.3029-.1289-.0441-.2633-.0703-.3994-.0779h-1.7367zm0 2.4234h1.7367c.0896.0075.1796.0075.2692 0h.2953c.0901-.0189.1754-.0563.2502-.11.0747-.0537.1374-.1223.1839-.2016.0931-.1508.1413-.3249.139-.502.0064-.2152-.0679-.425-.2084-.5885-.1454-.1626-.347-.2646-.5645-.2856-.0808-.009-.1623-.009-.2431 0h-1.8583z"></path><path d="m75.3647 34.5679v-5.4872h.7555v2.0772h1.4241.4168c.2553.0475.4996.1414.7208.2769.2135.1264.3878.3091.5036.528.1328.2687.1955.5663.1824.8655.0327.4108-.0913.8188-.3474 1.1424-.2484.2664-.5726.4506-.9291.528-.1492.0273-.3.0447-.4516.0519h-.4776zm.7381-.6404h1.3807c.1265-.0047.252-.0251.3734-.0606.1899-.0535.3613-.1583.495-.3029.1632-.1959.2441-.4471.2258-.7011.0148-.2521-.0623-.5011-.2171-.701-.1523-.1629-.3533-.2722-.5731-.3116h-.3387-1.346zm3.899.6404v-5.4872h.7554v5.4872z"></path><path d="m82.1726 34.5679v-5.4872h.7294v4.7948h2.0667v-4.7948h.7294v4.7948h2.0494v-4.7948h.7294v5.4872z"></path><path d="m91.4814 34.7151c-.3599.0137-.7176-.0605-1.042-.2164-.262-.1377-.4813-.3442-.634-.5972-.1374-.2461-.2092-.5232-.2084-.8049-.0075-.2682.0553-.5337.1824-.7703.1225-.2089.292-.3866.495-.5193.227-.1379.4726-.2428.7294-.3116.2779-.0605.5818-.1211.9204-.1731.3387-.0519.6687-.1038.99-.1384l.8683-.1125-.2692.1557c.0409-.4251-.0698-.8511-.3126-1.203-.1529-.1441-.3353-.2535-.5347-.3208-.1993-.0672-.4109-.0906-.6202-.0687-.3369-.0076-.6688.0826-.9552.2597-.2757.188-.4709.472-.547.7962l-.7295-.2077c.1071-.4606.3787-.8667.7642-1.1424.4358-.2895.9531-.432 1.4762-.4068.4445-.0125.8855.0825 1.2852.2769.3368.1757.601.4636.7467.8136.072.1708.116.3519.1303.5366.013.1989.013.3983 0 .5972v3.4101h-.6686v-1.3762l.191.0779c-.1608.4445-.4666.8224-.8684 1.0732-.4188.2516-.9003.3806-1.3893.3722zm.0868-.6405c.3001.0018.5968-.0632.8684-.1904.2518-.113.4701-.2889.6339-.5106.1601-.2209.2671-.4756.3126-.7444.0428-.1904.0661-.3847.0695-.5798v-.4761l.2865.1472-.8684.1038c-.3039 0-.5904.0693-.8683.1212-.263.0386-.5239.0906-.7815.1558-.1567.044-.3082.1049-.4516.1817-.1436.0755-.266.1856-.356.3203-.0984.1452-.1471.3183-.1389.4933-.0009.1599.0378.3174.1128.4587.0942.157.2292.2856.3908.3722.2451.1197.5183.1705.7902.1471z"></path><path d="m99.8611 34.7151c-.443.0111-.8808-.0965-1.2678-.3116-.3642-.203-.6647-.5026-.8684-.8655-.2235-.4111-.3539-.8661-.3821-1.3329h-1.0767v2.3715h-.7468v-5.4959h.7468v2.3715h1.0681c.0299-.4704.1633-.9284.3907-1.3416.2044-.3623.5048-.6617.8684-.8655.415-.2106.8762-.3146 1.3417-.3025.466.0121.921.1399 1.324.3718.381.2475.682.5991.868 1.0126.209.4713.313.9822.304 1.4973.012.5219-.095 1.0397-.312 1.5147-.184.4175-.485.7725-.869 1.0212-.42.2456-.902.3685-1.3889.3549zm0-.7097c.2619.0171.5239-.029.7649-.1345.24-.1054.451-.2671.616-.4714.319-.4651.477-1.021.451-1.5838.03-.5645-.133-1.1224-.46-1.5839-.173-.1842-.382-.3311-.614-.4314-.233-.1004-.483-.1522-.7362-.1522s-.5037.0518-.7359.1522c-.2323.1003-.4414.2472-.6144.4314-.3338.4617-.4964 1.0246-.4602 1.5925-.0278.5657.1307 1.125.4515 1.5925.1584.1988.3629.3562.5958.4587.233.1025.4874.1471.7415.1299z"></path><path d="m109.891 35.4854v-.9175h-6.27v-5.4872h.721v4.7948h2.067v-4.7948h.729v4.7948h2.058v-4.7948h.729v4.7948h.712v1.6099z"></path><path d="m115.821 29.0807v5.4872h-.729v-4.2755l-3.013 4.2755h-.625v-5.4872h.72v4.2323l3.022-4.2323z"></path><path d="m119.581 34.7151c-.49.0152-.975-.1078-1.398-.3549-.376-.245-.677-.5896-.868-.9953-.228-.4721-.341-.9909-.33-1.5146-.035-.5308.048-1.0627.243-1.5579.19-.4086.491-.7563.868-1.004.418-.2466.896-.3697 1.381-.3548.49-.0169.974.1127 1.389.3721.389.2618.691.6322.869 1.0646.204.5293.296 1.0952.269 1.6617h-.764v-.2596c.026-.5722-.136-1.1372-.46-1.6098-.157-.184-.355-.3291-.578-.4237s-.466-.1363-.708-.1216c-.256-.0164-.512.0267-.749.1258-.236.0991-.446.2516-.614.4454-.341.4749-.507 1.0529-.469 1.6358-.036.5747.13 1.1439.469 1.6098.164.1913.37.3424.602.4414.232.0991.483.1435.735.1299.364.0062.722-.0898 1.034-.277.3-.1902.54-.4599.694-.7789l.695.2683c-.2.456-.533.8419-.955 1.1078-.409.2475-.876.3819-1.355.3895zm-2.11-2.6917v-.6232h4.203v.6232z"></path><path d="m127.18 34.7151c-.497.0167-.987-.116-1.407-.3808-.398-.274-.702-.664-.868-1.1165l.755-.2251c.12.3052.328.5675.599.753.287.1771.618.2673.955.2597.234.0129.467-.0262.683-.1146.217-.0883.411-.2236.568-.3961.314-.3821.494-.8563.512-1.3501h-2.457v-.6405h2.457c-.012-.4894-.186-.9611-.495-1.3415-.156-.1772-.35-.3163-.568-.4064-.219-.09-.455-.1287-.691-.1129-.34-.0038-.675.0893-.964.2683-.282.1878-.5.4564-.625.7703l-.729-.2337c.152-.4583.459-.8498.868-1.1078.44-.28.954-.4217 1.476-.4068.486-.0142.965.1121 1.381.3635.382.246.684.598.868 1.0126.219.4776.326.9985.313 1.5233.01.519-.097 1.0337-.313 1.5059-.185.4141-.487.7659-.868 1.0127-.436.2642-.941.3909-1.45.3635z"></path><path d="m133.493 36.8529v-2.1811c-.496.0899-1.007.0296-1.468-.1731-.449-.2059-.818-.5524-1.051-.9866-.262-.5225-.399-1.099-.399-1.6834 0-.5845.137-1.1609.399-1.6834.226-.4295.582-.7776 1.016-.9953.461-.2027.972-.263 1.468-.1731v-1.6791h.695v1.6791c.495-.0894 1.006-.0291 1.467.1731.446.2142.813.5623 1.051.9953.257.5242.39 1.0999.39 1.6834 0 .5834-.133 1.1592-.39 1.6834-.236.4323-.604.7781-1.051.9866-.461.2022-.972.2625-1.467.1731v2.1811zm0-2.8735v-4.3275c-.263-.0618-.537-.0618-.799 0-.254.0634-.488.185-.686.3549-.213.1958-.377.439-.478.7097-.126.3403-.185.7019-.174 1.0646-.012.3599.047.7188.174 1.0559.104.2714.27.5146.486.7097.197.1716.432.2933.686.3548.256.0782.525.1047.791.0779zm.694 0c.261.052.53.052.79 0 .254-.0634.489-.1849.686-.3548.215-.1926.382-.4327.487-.7011.232-.6939.232-1.4439 0-2.1378-.101-.2704-.268-.5114-.487-.701-.195-.1731-.431-.295-.686-.3549-.259-.0605-.53-.0605-.79 0z"></path><path d="m140.821 36.8529v-2.1811c-.492.0903-1.001.0299-1.458-.1731-.452-.2054-.824-.5518-1.06-.9866-.257-.5242-.39-1.1-.39-1.6834 0-.5835.133-1.1592.39-1.6834.238-.4354.609-.784 1.06-.9953.457-.2031.966-.2634 1.458-.1731v-1.6791h.695v1.6791c.496-.0899 1.007-.0296 1.468.1731.448.2137.818.5617 1.059.9953.257.5242.391 1.0999.391 1.6834 0 .5834-.134 1.1592-.391 1.6834-.239.4329-.61.7786-1.059.9866-.461.2027-.972.263-1.468.1731v2.1811zm0-2.8735v-4.3275c-.259-.0605-.53-.0605-.79 0-.254.0616-.489.1833-.686.3549-.216.1951-.382.4383-.486.7097-.122.3414-.181.7021-.174 1.0646-.01.3605.052.7194.183 1.0559.101.2707.264.5139.477.7097.2.1717.438.2933.695.3548.252.0782.518.1047.781.0779zm.695 0c.261.0522.53.0522.79 0 .254-.0615.49-.1832.686-.3548.219-.1897.386-.4307.487-.7011.242-.692.242-1.4457 0-2.1378-.099-.2695-.263-.5104-.478-.701-.198-.17-.433-.2915-.686-.3549-.263-.0618-.536-.0618-.799 0z"></path><path d="m147.881 34.7151c-.49.0152-.975-.1078-1.398-.3549-.392-.2388-.709-.584-.912-.9953-.224-.4728-.334-.9916-.321-1.5146-.016-.5371.094-1.0705.321-1.5579.185-.412.487-.761.869-1.004.413-.2477.89-.3709 1.372-.3548.49-.0169.974.1127 1.389.3721.391.2595.693.6306.868 1.0646.205.5293.297 1.0952.27 1.6617h-.765v-.2596c.03-.5725-.132-1.1386-.46-1.6098-.156-.1846-.354-.33-.577-.4247-.224-.0946-.466-.1359-.708-.1206-.256-.0157-.512.0276-.749.1267-.236.0991-.446.2512-.614.4445-.342.4749-.507 1.0529-.469 1.6358-.037.5747.129 1.1439.469 1.6098.164.1913.369.3424.601.4414.232.0991.484.1435.736.1299.364.0076.722-.0884 1.033-.277.302-.1876.543-.4581.695-.7789l.695.2683c-.198.4578-.531.8444-.956 1.1078-.418.2535-.899.3881-1.389.3895zm-2.101-2.6917v-.6232h4.194v.6232z"></path><path d="m151.502 34.5679v-5.4872h.756v2.5965l2.457-2.5965h.999l-2.605 2.7436 2.917 2.7436h-1.094l-2.7-2.5965v2.5965z"></path><path d="m158.041 34.5679v-4.7948h-1.954v-.6924h4.655v.6924h-1.954v4.7948z"></path><path d="m166.091 29.0807v5.4872h-.73v-4.2755l-2.978 4.2755h-.634v-5.4872h.729v4.2323l3.013-4.2323z"></path><path d="m167.506 34.5679v-5.4872h2.267.425c.155.0091.309.0322.46.0692.298.0801.561.2567.747.502.18.2531.277.5554.278.8655.004.1799-.025.359-.087.528-.058.1474-.143.2825-.252.3981-.049.058-.108.1077-.173.1471-.054.0409-.113.0757-.174.1039.166.0437.323.1197.46.2237s.252.2338.339.3821c.117.2596.167.5439.148.8277-.02.2838-.11.5584-.261.7995-.181.2414-.438.4151-.73.4933-.142.0377-.287.0609-.434.0692h-.451zm.756-3.0638h1.537.295c.1-.0093.199-.0296.295-.0606.166-.0532.306-.1678.391-.3202.08-.1492.121-.3157.121-.4847.005-.1801-.043-.3575-.139-.5107-.094-.1434-.235-.2502-.399-.3029-.129-.0441-.263-.0703-.399-.0779h-1.737zm0 2.4234h1.736c.09.0075.18.0075.269 0h.296c.09-.0189.175-.0563.25-.11s.137-.1223.184-.2016c.093-.1508.141-.3249.139-.502.006-.2152-.068-.425-.209-.5885-.145-.1626-.346-.2646-.564-.2856-.081-.009-.162-.009-.243 0h-1.893z"></path><path d="m172.959 34.5679v-5.4872h.756v2.3801h3.1v-2.3801h.747v5.4872h-.747v-2.3887h-3.1v2.3887z"></path><path d="m181.287 34.7151c-.496.0156-.985-.1138-1.407-.3722-.38-.2524-.681-.6063-.868-1.0213-.206-.4755-.313-.988-.313-1.5059 0-.518.107-1.0305.313-1.506.189-.4113.49-.7619.868-1.0126.42-.2486.901-.3745 1.389-.3635.494-.0143.982.1117 1.407.3635.379.2531.68.6068.868 1.0213.209.4712.313.9821.304 1.4973.012.5219-.095 1.0397-.312 1.5146-.184.4175-.485.7725-.869 1.0213-.417.247-.895.3729-1.38.3635zm0-.7097c.259.0172.519-.0289.757-.1345.237-.1056.445-.2674.606-.4714.316-.4664.474-1.0214.452-1.5838.026-.5628-.133-1.1188-.452-1.5839-.163-.1997-.372-.3574-.61-.4598-.237-.1024-.495-.1465-.753-.1287-.359-.0148-.714.082-1.016.2769-.273.1913-.481.4596-.599.7703-.138.3591-.206.7409-.2 1.1252-.025.5667.136 1.126.46 1.5925.161.2011.368.3605.604.4645s.493.1495.751.1327z"></path><path d="m187.296 34.7151c-.496.0177-.985-.1119-1.407-.3722-.384-.2472-.687-.6026-.868-1.0213-.209-.4712-.313-.9821-.304-1.4973-.007-.5214.1-1.0382.312-1.5146.186-.4141.487-.7658.869-1.0126.418-.2526.9-.3789 1.389-.3635.516-.0115 1.024.1301 1.459.4067.412.2547.72.6475.868 1.1079l-.729.2337c-.117-.3143-.333-.5818-.617-.7617-.284-.1832-.616-.2794-.955-.2769-.356-.013-.708.0837-1.007.2769-.267.1955-.471.4627-.591.7703-.133.3632-.2.7471-.199 1.1338-.019.5632.142 1.1177.46 1.5839.157.2009.361.3603.594.4645.233.1041.488.1496.743.1327.337.0076.669-.0826.955-.2597.271-.1855.48-.4478.6-.753l.746.2251c-.163.4545-.467.8455-.868 1.1165-.432.2733-.939.4064-1.45.3808z"></path><path d="m192.002 34.5679v-4.7948h-1.945v-.6924h4.646v.6924h-1.928v4.7948z"></path><path d="m195.676 34.5679v-5.4872h.755v2.0772h1.737.417c.254.0444.499.1354.72.2683.216.1272.391.3134.504.5366.133.2687.195.5663.182.8655.022.4043-.108.8021-.364 1.1165-.244.2674-.566.4521-.921.5279-.149.0269-.3.0442-.451.052h-.487zm.746-.6404h1.737c.127-.0047.252-.0251.373-.0606.19-.0535.362-.1583.495-.3029.16-.1972.238-.4483.217-.7011.018-.251-.056-.4999-.208-.701-.155-.1596-.355-.2683-.573-.3116h-.339-1.702z"></path></g></svg> 