<?xml version="1.0" encoding="UTF-8"?> <svg xmlns="http://www.w3.org/2000/svg" width="197.99" height="21.228" viewBox="0 0 197.99 21.228"><defs><style>.a{fill:#0a2896;fill-rule:evenodd;}.b{fill:#191d3c;}</style></defs><g transform="translate(-423.1 -400.2)"><path class="a" d="M444.328,415.19l-4.527,4.427V407.846l-13.582,13.582-3.119-3.119,13.582-13.582H425.313l4.125-4.125.4-.4h14.185a.433.433,0,0,1,.4.4h0" transform="translate(0 0)"></path><g transform="translate(457.104 400.703)"><path class="b" d="M473.7,409.453l-3.924,7.042h-3.924l-3.924-7.042v10.966H456.9V400.7h5.332l5.634,10.463L473.5,400.7h5.332v19.718H473.8V409.453Z" transform="translate(-456.9 -400.7)"></path><path class="b" d="M491.666,420.418h-5.03V404.624H480.7V400.7h16.9v3.923h-5.936Z" transform="translate(-456.756 -400.7)"></path><path class="b" d="M508.966,420.418h-5.03V404.624H498V400.7h16.9v3.923h-5.936Z" transform="translate(-456.652 -400.7)"></path></g><g transform="translate(521.391 400.401)"><path class="b" d="M538.2,420.016a106.877,106.877,0,0,1-12.073.7c-1.811,0-3.219-.4-4.024-1.308a5.842,5.842,0,0,1-1.308-4.024v-9.055c0-2.012.4-3.421,1.308-4.326s2.314-1.308,4.326-1.308h10.161v3.924H527.54a1.539,1.539,0,0,0-1.71,1.71v9.054a1.167,1.167,0,0,0,.4,1.006,1.788,1.788,0,0,0,1.006.4c2.113,0,4.125,0,5.936-.1v-4.125h-3.622v-3.421h8.753v10.865Z" transform="translate(-520.8 -400.398)"></path><path class="b" d="M540.9,400.7h11.871c2.012,0,3.421.4,4.326,1.308s1.308,2.314,1.308,4.326v2.515a7.153,7.153,0,0,1-.8,3.622,3.6,3.6,0,0,1-2.515,1.71l3.521,6.238h-5.533l-3.219-5.936H545.93v5.936H540.9V400.7Zm12.374,5.634a1.539,1.539,0,0,0-1.71-1.71H545.93v5.936h5.634a1.54,1.54,0,0,0,1.71-1.71Z" transform="translate(-520.678 -400.398)"></path><path class="b" d="M578.81,415.088c0,2.012-.4,3.421-1.308,4.326s-2.314,1.308-4.326,1.308h-7.042c-2.012,0-3.421-.4-4.326-1.308s-1.308-2.314-1.308-4.326v-9.054c0-2.012.4-3.421,1.308-4.326s2.314-1.308,4.326-1.308h7.042c2.012,0,3.42.4,4.326,1.308s1.308,2.314,1.308,4.326Zm-5.131-9.054a1.539,1.539,0,0,0-1.71-1.71H567.14a1.54,1.54,0,0,0-1.71,1.71v9.054a1.539,1.539,0,0,0,1.71,1.71h4.829a1.539,1.539,0,0,0,1.71-1.71Z" transform="translate(-520.56 -400.4)"></path><path class="b" d="M594.176,400.7h5.03v14.386c0,2.012-.4,3.421-1.308,4.326s-2.314,1.308-4.326,1.308h-6.439c-2.012,0-3.421-.4-4.326-1.308s-1.308-2.314-1.308-4.326V400.7h5.03v14.386a1.539,1.539,0,0,0,1.71,1.71h4.225a1.54,1.54,0,0,0,1.71-1.71V400.7Z" transform="translate(-520.433 -400.398)"></path><path class="b" d="M602.5,400.7h11.871c2.012,0,3.421.4,4.326,1.308s1.308,2.314,1.308,4.326v2.817c0,2.012-.4,3.421-1.308,4.326s-2.314,1.308-4.326,1.308h-6.74v5.634H602.6V400.7Zm12.374,5.634a1.539,1.539,0,0,0-1.71-1.71H607.53v6.238h5.634a1.54,1.54,0,0,0,1.71-1.71Z" transform="translate(-520.306 -400.398)"></path></g></g></svg> 