<?xml version="1.0" encoding="UTF-8"?> <svg xmlns:x="http://ns.adobe.com/Extensibility/1.0/" xmlns:i="http://ns.adobe.com/AdobeIllustrator/10.0/" xmlns:graph="http://ns.adobe.com/Graphs/1.0/" xmlns="http://www.w3.org/2000/svg" xmlns:xlink="http://www.w3.org/1999/xlink" version="1.1" id="Layer_1" x="0px" y="0px" xml:space="preserve" viewBox="31.45 31.24 419 118.86"> <metadata> </metadata> <g id="logo_hor_color"> <path fill="#FFFFFF" d="M149.042,90.664c0,32.124-26.042,58.166-58.165,58.166c-32.126,0-58.166-26.041-58.166-58.166 c0-32.124,26.04-58.166,58.166-58.166C122.999,32.499,149.042,58.54,149.042,90.664"></path> <path fill="#4C75E6" d="M90.876,150.093c-32.77,0-59.43-26.659-59.43-59.429c0-32.77,26.66-59.429,59.43-59.429 c32.77,0,59.43,26.659,59.43,59.429C150.306,123.434,123.645,150.093,90.876,150.093 M90.876,33.762 c-31.376,0-56.904,25.526-56.904,56.902s25.527,56.902,56.904,56.902c31.377,0,56.904-25.526,56.904-56.902 S122.253,33.762,90.876,33.762"></path> <path fill="#4C75E6" d="M124.64,62.602c-1.525-0.63-10.638-2.79-13.484-1.517c-1.61,0.72-6.127,4.432-9.751,7.526 c-1.359-1.324-3.607-2.551-7.31-3.244c-4.962-0.93-12.416-2.716-23.639,4.037c-11.737,7.069-19.218,12.23-21.774,13.999 c-0.215,0.149-4.503,3.359-4.872,7.78c1.107-3.177,4.033-5.318,4.206-5.441c2.426-1.728,10.558-5.816,20.961-12.712 c8.676-5.75,14.49-6.543,18.902-6.14c-6.853,1.773-10.975,6.544-13.396,10.925C62.829,84.84,55.391,89.969,52.842,91.732 c-0.21,0.149-4.497,3.359-4.868,7.778c1.109-3.176,4.035-5.316,4.205-5.438c2.394-1.708,10.339-5.706,20.528-12.427 c-0.628,1.643-1.003,3.02-1.205,3.855c-4.741,0.568-8.424,4.598-8.428,9.494c-0.005,3.283,1.65,6.18,4.167,7.909 c-1.299,0.877-2.288,1.563-2.941,2.014c-0.215,0.149-4.503,3.357-4.874,7.785c1.112-3.18,4.037-5.32,4.205-5.446 c0.991-0.701,2.935-1.801,5.586-3.321c1.067,0.408,2.215,0.644,3.425,0.644c2.737,0.003,5.201-1.15,6.945-2.986 c1.452,2.643,2.983,5.658,4.614,8.561c-4.969,3.202-8.298,5.499-9.837,6.567c-0.217,0.148-4.502,3.356-4.869,7.778 c1.105-3.179,4.028-5.316,4.205-5.441c1.637-1.167,5.881-3.416,11.669-6.876c1.631,2.731,3.363,5.237,5.218,7.055 c0.847,0.832,1.848,1.538,2.912,2.147c-2.314,4.444-9.357,10.921-12.253,13.479c0.011,0.038,0.022,0.074,0.03,0.113 c0,0,11.302-6.474,16.268-11.826c3.321,1.098,6.646,1.52,8.468,1.684c3.206,0.286,3.181-2.043,3.191-3.282 c0.009-1.174,0.507-3.946-0.527-4.903c0.038-1.964-0.995-3.893-1.937-5.238c-0.39-1.854-0.695-3.904-0.769-5.998l3.763,1 c0.072,0.016,0.14,0.034,0.211,0.053c0.304,1.502,1.816,2.825,3.827,3.18l0.343,0.057c2.456,0.434,4.71-0.747,5.042-2.638 c0.331-1.888-1.392-3.767-3.847-4.198l-0.339-0.06c-1.701-0.298-3.307,0.18-4.241,1.128c-0.107-0.032-0.211-0.062-0.317-0.091 l-4.382-1.16c0.024-0.241,0.037-0.485,0.068-0.725c0.876-7.534,4.081-11.34,10.127-17.775c1.197-1.276,2.239-2.462,3.157-3.553 c0.083-0.038,0.161-0.08,0.249-0.123v0.039c0,0,0.038-0.033,0.092-0.085c1.898-0.97,4.447-2.722,4.659-5.206 c0.96-0.6,1.686-1.538,1.928-2.993C127.182,67.037,126.167,63.231,124.64,62.602 M94.53,68.553 c1.784,0.876,2.826,1.964,3.421,3.042c-0.977,0.851-1.587,1.396-1.587,1.396s-0.15,0.085-0.436,0.275 c-2.714-0.464-6.029-0.813-10.082-0.045C88.942,70.72,92.128,69.324,94.53,68.553 M79.471,88.281 c-0.713-0.721-1.538-1.327-2.453-1.796c1.331-4.16,3.258-7.412,5.426-9.949c4.4-1.553,7.788-1.582,10.598-1.202 c-1.952,1.312-4.244,1.16-6.625,3.98C84.26,81.865,81.39,85.203,79.471,88.281 M105.69,122.219 c-2.971-0.332-10.039-1.595-14.054-5.381c-4.019-3.783-7.089-11.754-9.969-16.931c-0.142-0.255-0.272-0.496-0.402-0.739 c0.045-0.089,0.087-0.18,0.13-0.271l11.38,3.02c-0.465,4.825-1.259,7.573,0.598,10.932c1.964,3.554,11.277,5.205,11.277,5.205 c1.827,0.195,2.916,0.245,2.948,0.957C107.637,119.723,108.035,122.478,105.69,122.219 M104.622,114.374 c-0.422,0.816-0.796,1.511-0.796,1.511c-1.141-0.195-2.396-0.479-3.614-0.891c-0.129-1.846,0.13-4.202,1.868-5.851 c0,0-3.864,0.961-6.116,3.379c-0.02-0.024-0.049-0.049-0.066-0.075c-2.584-2.819-1.457-3.736-0.948-9.773 c0.004-0.061,0.014-0.118,0.024-0.176l7.753,2.056c0.089,3.569,1.065,7,2.013,9.557 C104.706,114.202,104.659,114.284,104.622,114.374 M112.371,84.285c-5.494,6.353-8.626,10.147-9.518,17.499 c-0.003,0.016-0.003,0.038-0.003,0.054l-7.36-1.951c1.388-4.655,5.014-8.427,8.256-13.338c3.039-4.606,5.56-8.317,7.051-10.32 c1.659,2.375,4.287,4.241,4.287,4.241c-0.809-1.7-0.43-3.76,0.148-5.389c0.224,0.08,0.454,0.161,0.709,0.259 c0.839,0.308,2.19,0.643,3.645,0.765C118.047,77.81,115.551,80.607,112.371,84.285 M112.339,74.593 c0.11-0.045,0.236-0.072,0.37-0.084l-0.37,0.118V74.593z M112.234,74.658l-0.053,0.02c0.016-0.011,0.038-0.03,0.057-0.038 C112.238,74.645,112.234,74.651,112.234,74.658 M123.359,71.531c-0.777,4.653-7.645,1.218-9.946,0.388 c-2.304-0.831-5.087,3.283-5.887,4.595c-0.804,1.312-3.677,4.534-7.223,9.724c-3.138,4.602-6.223,8.46-7.185,13.018l-10.996-2.914 c0.06-0.434,0.104-0.877,0.104-1.331c0.007-2.021-0.626-3.892-1.69-5.435c1.938-2.891,3.924-5.959,6.212-8.562 c2.3-2.617,4.657-0.996,6.514-2.354c1.857-1.36,4.424-4.198,4.424-4.198s10.792-8.805,13.422-9.926c0.732-0.31,1.8-0.43,2.996-0.42 c0.502,1.182,1.365,2.574,2.094,3.519c1.307,1.697,3.942,2.93,5.861,1.663c0.656-0.435,1.209-1.09,1.606-1.8 C123.762,68.38,123.674,69.646,123.359,71.531"></path> <g> <path fill="#333333" d="M253.972,88.226v17.106h-2.018l-0.385-3.344c-2.513,2.573-5.502,3.859-8.96,3.859 c-3.374,0-5.793-1.216-7.268-3.645c-1.469-2.428-2.208-6.331-2.208-11.703c0-5.746,0.874-9.724,2.617-11.94 c1.742-2.216,4.831-3.324,9.258-3.324c3.26,0,6.031,0.272,8.318,0.815l-0.343,2.102c-2.573-0.287-5.174-0.428-7.802-0.428 c-2.344,0-4.144,0.356-5.401,1.071c-1.259,0.714-2.188,1.994-2.788,3.836c-0.599,1.843-0.897,4.51-0.897,7.997 c0,4.63,0.54,7.917,1.625,9.861c1.09,1.942,2.962,2.914,5.617,2.914c1.059,0,2.101-0.186,3.131-0.557 c1.026-0.371,1.849-0.758,2.466-1.158c0.614-0.401,1.377-0.957,2.292-1.671V88.226H253.972z"></path> <path fill="#333333" d="M203.595,75.751h3.347c0.828,0,1.24,0.415,1.24,1.243l1.246,28.339h-2.788l-1.159-27.223h-0.942 l-7.673,23.192c-0.202,0.63-0.628,0.945-1.286,0.945h-2.83c-0.659,0-1.084-0.315-1.286-0.945l-7.714-23.192h-0.903l-1.116,27.223 h-2.784l1.2-28.339c0-0.828,0.412-1.243,1.244-1.243h3.385c0.599,0,1.015,0.329,1.244,0.987l6.474,19.292 c0.458,1.429,0.857,2.772,1.2,4.028h0.943c0.173-0.628,0.586-1.984,1.244-4.072l6.474-19.249 C202.523,76.08,202.939,75.751,203.595,75.751"></path> <rect x="220.144" y="75.751" fill="#333333" width="2.788" height="29.582"></rect> <path fill="#333333" d="M333.624,94.743v10.589h-2.788V94.7l-9.948-18.949h3.002l6.776,13.12c0.37,0.743,0.843,1.8,1.415,3.172 h0.298c0.37-0.885,0.842-1.929,1.414-3.128l6.776-13.163h2.958L333.624,94.743z"></path> <path fill="#333333" d="M369.293,102.846l0.343,2.1c-2.23,0.602-5.059,0.901-8.488,0.901c-4.175,0-7.105-1.143-8.79-3.431 c-1.689-2.285-2.531-6.243-2.531-11.874c0-5.632,0.842-9.59,2.531-11.877c1.685-2.287,4.615-3.431,8.79-3.431 c3.113,0,5.742,0.273,7.889,0.815l-0.344,2.101c-2.174-0.256-4.687-0.386-7.544-0.386c-3.145,0-5.332,0.93-6.56,2.788 c-1.231,1.858-1.845,5.187-1.845,9.99c0,4.8,0.614,8.13,1.845,9.987c1.228,1.858,3.416,2.788,6.56,2.788 C364.404,103.318,367.119,103.161,369.293,102.846"></path> <path fill="#333333" d="M393.429,93.113l-4.244-12.732c-0.028-0.142-0.142-0.507-0.343-1.094 c-0.202-0.584-0.344-1.021-0.431-1.307h-1.2l-0.815,2.4l-4.244,12.732H393.429z M394.244,95.558h-12.905l-3.256,9.774h-2.917 l9.903-28.767c0.171-0.542,0.541-0.815,1.113-0.815h3.218c0.573,0,0.943,0.272,1.113,0.815l9.903,28.767h-2.911L394.244,95.558z"></path> <path fill="#333333" d="M411.009,75.751v24.095c0,2.086,1.03,3.13,3.085,3.13h11.02l0.084,2.142 c-3.028,0.172-6.887,0.259-11.574,0.259c-1.8,0-3.16-0.472-4.074-1.414c-0.912-0.943-1.369-2.186-1.369-3.732v-24.48H411.009z"></path> <path fill="#333333" d="M436.258,75.751v24.095c0,2.086,1.03,3.13,3.086,3.13h11.019l0.084,2.142 c-3.028,0.172-6.887,0.259-11.574,0.259c-1.8,0-3.16-0.472-4.075-1.414c-0.912-0.943-1.369-2.186-1.369-3.732v-24.48H436.258z"></path> <polygon fill="#333333" points="315.83,78.237 305.973,78.237 305.973,105.332 303.142,105.332 303.142,78.237 293.323,78.237 293.323,75.751 315.83,75.751 "></polygon> <polygon fill="#333333" points="284.922,75.751 284.922,105.332 282.133,105.332 282.133,90.712 267.217,90.712 267.217,105.332 264.43,105.332 264.43,75.751 267.217,75.751 267.217,88.313 282.133,88.313 282.133,75.751 "></polygon> </g> </g> <g> </g> <g> </g> <g> </g> <g> </g> <g> </g> <g> </g> <g> </g> <g> </g> <g> </g> <g> </g> <g> </g> <g> </g> <g> </g> <g> </g> <g> </g> </svg> 